<svg xmlns="http://www.w3.org/2000/svg" width="1280" height="720" viewBox="0 0 1280 720">
  <rect width="1280" height="720" fill="#111827"/>
  <rect x="40" y="40" width="1200" height="80" rx="12" fill="#1F2937"/>
  <text x="70" y="90" font-family="sans-serif" font-size="28" font-weight="bold" fill="#3B82F6">Calendario Anual de Turnos</text>
  <g transform="translate(40,160)">
    <rect x="0" y="0" width="280" height="240" rx="8" fill="#1F2937"/>
    <rect x="300" y="0" width="280" height="240" rx="8" fill="#1F2937"/>
    <rect x="600" y="0" width="280" height="240" rx="8" fill="#1F2937"/>
    <rect x="900" y="0" width="280" height="240" rx="8" fill="#1F2937"/>
    <rect x="0" y="260" width="280" height="240" rx="8" fill="#1F2937"/>
    <rect x="300" y="260" width="280" height="240" rx="8" fill="#1F2937"/>
    <rect x="600" y="260" width="280" height="240" rx="8" fill="#1F2937"/>
    <rect x="900" y="260" width="280" height="240" rx="8" fill="#1F2937"/>
    <rect x="0" y="520" width="280" height="160" rx="8" fill="#1F2937"/>
    <rect x="300" y="520" width="280" height="160" rx="8" fill="#1F2937"/>
    <rect x="600" y="520" width="280" height="160" rx="8" fill="#1F2937"/>
    <rect x="900" y="520" width="280" height="160" rx="8" fill="#1F2937"/>
    <rect x="20" y="40" width="20" height="20" fill="#EAB308"/>
    <rect x="44" y="40" width="20" height="20" fill="#F97316"/>
    <rect x="68" y="40" width="20" height="20" fill="#2563EB"/>
    <rect x="92" y="40" width="20" height="20" fill="#4B5563"/>
  </g>
</svg>